<svg xmlns="http://www.w3.org/2000/svg" viewBox="0 0 64 64" fill="none"><circle cx="32" cy="32" r="30" fill="#66f0d5"/><g fill="#0c0f1a"><path d="M20 37.5c.3-.3.7-.5 1.2-.5h24.6c.9 0 1.4 1 .8 1.7l-5.3 6.3c-.3.3-.7.5-1.2.5H15.5c-.9 0-1.4-1-.8-1.7l5.3-6.3Z"/><path d="M20 26.5c.3-.3.7-.5 1.2-.5h24.6c.9 0 1.4 1 .8 1.7l-5.3 6.3c-.3.3-.7.5-1.2.5H15.5c-.9 0-1.4-1-.8-1.7l5.3-6.3Z"/><path d="M20 15.5c.3-.3.7-.5 1.2-.5h24.6c.9 0 1.4 1 .8 1.7l-5.3 6.3c-.3.3-.7.5-1.2.5H15.5c-.9 0-1.4-1-.8-1.7l5.3-6.3Z"/></g></svg>
